<svg xmlns="http://www.w3.org/2000/svg" width="16.157" height="16.157" viewBox="0 0 16.157 16.157"><g transform="translate(717.317 -940.409)"><path d="M-698.366,962.848h-3.394a.315.315,0,0,0-.348.344.317.317,0,0,0,.348.348h1.349v4.213a.311.311,0,0,0,.348.341.312.312,0,0,0,.344-.341V963.54h1.353a.316.316,0,0,0,.348-.348A.315.315,0,0,0-698.366,962.848Z" transform="translate(-11.507 -16.978)" fill="#fff"/><path d="M-679.168,962.8h0a.315.315,0,0,0-.344.348v3.486l-2.765-3.686a.324.324,0,0,0-.368-.132l-.016,0a.324.324,0,0,0-.235.332v4.532a.315.315,0,0,0,.348.344.312.312,0,0,0,.341-.344v-3.492l2.768,3.692a.318.318,0,0,0,.122.107.338.338,0,0,0,.246.019l.017,0a.327.327,0,0,0,.238-.329V963.15A.316.316,0,0,0-679.168,962.8Z" transform="translate(-26.041 -16.943)" fill="#fff"/><path d="M-709.238,940.409a8.079,8.079,0,0,0-8.079,8.079,8.079,8.079,0,0,0,8.079,8.078,8.079,8.079,0,0,0,8.079-8.078A8.079,8.079,0,0,0-709.238,940.409Zm0,15.184a7.113,7.113,0,0,1-7.105-7.1,7.113,7.113,0,0,1,7.105-7.105,7.113,7.113,0,0,1,7.105,7.105A7.113,7.113,0,0,1-709.238,955.593Z" transform="translate(0 0)" fill="#fff"/></g></svg>