<svg xmlns="http://www.w3.org/2000/svg" viewBox="0 0 72 72" width="72" height="72" preserveAspectRatio="xMidYMid meet" style="width: 100%; height: 100%; transform: translate3d(0px, 0px, 0px);"><defs><clipPath id="__lottie_element_2"><rect width="72" height="72" x="0" y="0"></rect></clipPath></defs><g clip-path="url(#__lottie_element_2)"><g transform="matrix(1,0,0,1,36,36)" opacity="1" style="display: block;"><path stroke-linecap="butt" stroke-linejoin="miter" fill-opacity="0" stroke-miterlimit="4" stroke="rgb(227,227,227)" stroke-opacity="1" stroke-width="2" d=" M18.323999404907227,4.427999973297119 C18.323999404907227,4.427999973297119 18.28700065612793,14.213000297546387 18.28700065612793,14.213000297546387 C18.28700065612793,24.312999725341797 10.100000381469727,32.5 0,32.5 C0,32.5 0,32.5 0,32.5 C-10.100000381469727,32.5 -18.28700065612793,24.312999725341797 -18.28700065612793,14.213000297546387 C-18.28700065612793,14.213000297546387 -18.28700065612793,-14.213000297546387 -18.28700065612793,-14.213000297546387 C-18.28700065612793,-24.312999725341797 -10.100000381469727,-32.5 0,-32.5 C0,-32.5 0,-32.5 0,-32.5 C10.100000381469727,-32.5 18.28700065612793,-24.312999725341797 18.28700065612793,-14.213000297546387 C18.28700065612793,-14.213000297546387 18.28700065612793,7.375999927520752 18.28700065612793,7.375999927520752"></path></g><g style="display: none;" transform="matrix(1,0,0,1,36,36)" opacity="1"><path stroke-linecap="butt" stroke-linejoin="miter" fill-opacity="0" stroke-miterlimit="4" stroke="rgb(227,227,227)" stroke-opacity="1" stroke-width="2" d="M0 0"></path></g><g transform="matrix(1,0,0,1,36,36)" opacity="1" style="display: block;"><path stroke-linecap="butt" stroke-linejoin="miter" fill-opacity="0" stroke-miterlimit="4" stroke="rgb(0,174,255)" stroke-opacity="1" stroke-width="2" d="M0 0"></path></g><g style="display: none;" transform="matrix(1,0,0,1,36,36)" opacity="1"><path stroke-linecap="butt" stroke-linejoin="miter" fill-opacity="0" stroke-miterlimit="4" stroke="rgb(0,174,255)" stroke-opacity="1" stroke-width="2" d="M0 0"></path></g><g style="display: block;" transform="matrix(1,0,0,1,36,42.45763397216797)" opacity="1"><path stroke-linecap="butt" stroke-linejoin="miter" fill-opacity="0" stroke-miterlimit="4" stroke="rgb(0,174,255)" stroke-opacity="1" stroke-width="2" d=" M-4.440999984741211,-13.32699966430664 C-5.6620001792907715,-9.550999641418457 0.06499999761581421,-8.267000198364258 0.06499999761581421,7.4120001792907715 C0.06499999761581421,7.4120001792907715 0.006000000052154064,16.625999450683594 0.006000000052154064,16.625999450683594"></path></g><g style="display: block;" transform="matrix(1,0,0,1,54,50.70763397216797)" opacity="1"><path stroke-linecap="butt" stroke-linejoin="miter" fill-opacity="0" stroke-miterlimit="4" stroke="rgb(0,173,255)" stroke-opacity="1" stroke-width="2" d=" M-24.45199966430664,3.003000020980835 C-24.45199966430664,3.003000020980835 -22.260000228881836,5.223999977111816 -20.43899917602539,7.068999767303467"></path></g></g></svg>